<svg width="29" height="17" viewBox="0 0 29 17" fill="none" xmlns="http://www.w3.org/2000/svg">
<g clip-path="url(#clip0_255_2884)">
<path d="M13.0753 16.6814C13.8888 16.6814 14.5771 16.0557 14.5771 14.898V2.0803C14.5771 0.922639 13.8888 0.296875 13.0753 0.296875C12.6477 0.296875 12.3035 0.432457 11.8759 0.682762L1.24841 6.9404C0.507919 7.37843 0.195038 7.88945 0.195038 8.48394C0.195038 9.08883 0.507919 9.59985 1.24841 10.0379L11.8759 16.2955C12.2931 16.5459 12.6477 16.6814 13.0753 16.6814ZM27.4052 16.6814C28.2188 16.6814 28.9071 16.0557 28.9071 14.898V2.0803C28.9071 0.922639 28.2188 0.296875 27.4052 0.296875C26.9776 0.296875 26.6335 0.432457 26.2059 0.682762L15.5784 6.9404C14.8379 7.37843 14.525 7.88945 14.525 8.48394C14.525 9.08883 14.8379 9.59985 15.5784 10.0379L26.2059 16.2955C26.6231 16.5459 26.9776 16.6814 27.4052 16.6814Z" fill="white" fill-opacity="0.85"/>
</g>
<defs>
<clipPath id="clip0_255_2884">
<rect width="28.712" height="16.4054" fill="white" transform="translate(0.195038 0.276123)"/>
</clipPath>
</defs>
</svg>
