<svg width="42" height="41" viewBox="0 0 42 41" fill="none" xmlns="http://www.w3.org/2000/svg">
<path fill-rule="evenodd" clip-rule="evenodd" d="M20.5 0C9.17816 0 0 9.17816 0 20.5C0 31.8218 9.17816 41 20.5 41H21.5C32.8218 41 42 31.8218 42 20.5C42 9.17816 32.8218 0 21.5 0H20.5ZM15 12C14.4477 12 14 12.4477 14 13V29C14 29.5523 14.4477 30 15 30H19C19.5523 30 20 29.5523 20 29V13C20 12.4477 19.5523 12 19 12H15ZM16 28V14H18V28H16ZM23 12C22.4477 12 22 12.4477 22 13V29C22 29.5523 22.4477 30 23 30H27C27.5523 30 28 29.5523 28 29V13C28 12.4477 27.5523 12 27 12H23ZM24 28V14H26V28H24Z" fill="#43C5C3"/>
</svg>
