<svg width="24" height="24" viewBox="0 0 24 24" fill="none" xmlns="http://www.w3.org/2000/svg">
<path d="M12.0577 20.9216C11.4425 20.376 10.7472 19.8085 10.0119 19.2048H10.0023C7.41287 17.0874 4.47813 14.6916 3.18196 11.8207C2.75612 10.9068 2.53044 9.91236 2.52003 8.9041C2.51719 7.52065 3.07205 6.19444 4.05924 5.2252C5.04642 4.25596 6.38259 3.72552 7.76576 3.75376C8.89181 3.75554 9.99361 4.08098 10.9399 4.69131C11.3557 4.9612 11.7319 5.28766 12.0577 5.66129C12.3853 5.28913 12.7616 4.96286 13.1765 4.69131C14.1224 4.08086 15.2239 3.7554 16.3497 3.75376C17.7328 3.72552 19.069 4.25596 20.0562 5.2252C21.0434 6.19444 21.5983 7.52065 21.5954 8.9041C21.5857 9.91397 21.36 10.9101 20.9335 11.8255C19.6373 14.6963 16.7035 17.0912 14.114 19.2048L14.1045 19.2124C13.3682 19.8123 12.6739 20.3798 12.0587 20.9292L12.0577 20.9216ZM7.76576 5.66129C6.87734 5.65018 6.02044 5.99019 5.38134 6.60743C4.76558 7.21228 4.42143 8.04099 4.4275 8.9041C4.43838 9.63898 4.60481 10.3632 4.91591 11.0291C5.52776 12.2678 6.35334 13.3888 7.35469 14.3406C8.29987 15.2943 9.38717 16.2176 10.3276 16.994C10.588 17.2086 10.8531 17.4251 11.1183 17.6416L11.2852 17.778C11.5398 17.9859 11.8031 18.2014 12.0577 18.4132L12.0701 18.4017L12.0758 18.397H12.0816L12.0901 18.3903H12.0949H12.0997L12.1169 18.376L12.156 18.3445L12.1626 18.3388L12.1731 18.3311H12.1788L12.1874 18.3235L12.8207 17.8037L12.9867 17.6673C13.2547 17.4489 13.5198 17.2324 13.7802 17.0178C14.7206 16.2414 15.8089 15.3191 16.7541 14.3606C17.7556 13.4093 18.5812 12.2886 19.1929 11.0501C19.5096 10.3784 19.6784 9.64662 19.6879 8.9041C19.6918 8.04365 19.3479 7.21812 18.7341 6.61506C18.0962 5.99504 17.2392 5.65222 16.3497 5.66129C15.2642 5.65207 14.2265 6.10705 13.4979 6.91168L12.0577 8.57124L10.6175 6.91168C9.88891 6.10705 8.85122 5.65207 7.76576 5.66129Z" fill="#334054"/>
</svg>
