<svg width="25" height="18" viewBox="0 0 25 18" fill="none" xmlns="http://www.w3.org/2000/svg">
<g clip-path="url(#clip0_255_2910)">
<path d="M7.62814 2.57452H23.8484C24.3827 2.57452 24.8102 2.15892 24.8102 1.62458C24.8102 1.07836 24.3827 0.662761 23.8484 0.662761H7.62814C7.08188 0.662761 6.66629 1.07836 6.66629 1.62458C6.66629 2.15892 7.08188 2.57452 7.62814 2.57452ZM7.62814 9.75846H23.8484C24.3827 9.75846 24.8102 9.331 24.8102 8.79666C24.8102 8.26232 24.3827 7.84672 23.8484 7.84672H7.62814C7.08188 7.84672 6.66629 8.26232 6.66629 8.79666C6.66629 9.331 7.08188 9.75846 7.62814 9.75846ZM7.62814 16.9305H23.8484C24.3827 16.9305 24.8102 16.5149 24.8102 15.9806C24.8102 15.4343 24.3827 15.0187 23.8484 15.0187H7.62814C7.08188 15.0187 6.66629 15.4343 6.66629 15.9806C6.66629 16.5149 7.08188 16.9305 7.62814 16.9305ZM2.37968 3.10887C3.21087 3.10887 3.87584 2.44391 3.87584 1.62458C3.87584 0.793376 3.21087 0.128418 2.37968 0.128418C1.54847 0.128418 0.883514 0.793376 0.883514 1.62458C0.883514 2.44391 1.54847 3.10887 2.37968 3.10887ZM2.37968 10.2928C3.21087 10.2928 3.87584 9.62787 3.87584 8.79666C3.87584 7.96545 3.21087 7.30046 2.37968 7.30046C1.54847 7.30046 0.883514 7.96545 0.883514 8.79666C0.883514 9.62787 1.54847 10.2928 2.37968 10.2928ZM2.37968 17.4767C3.21087 17.4767 3.87584 16.7999 3.87584 15.9806C3.87584 15.1494 3.21087 14.4844 2.37968 14.4844C1.54847 14.4844 0.883514 15.1494 0.883514 15.9806C0.883514 16.7999 1.54847 17.4767 2.37968 17.4767Z" fill="white" fill-opacity="0.85"/>
</g>
<defs>
<clipPath id="clip0_255_2910">
<rect width="23.9267" height="17.3721" fill="white" transform="translate(0.883484 0.104736)"/>
</clipPath>
</defs>
</svg>
