<svg width="23" height="23" viewBox="0 0 23 23" fill="none" xmlns="http://www.w3.org/2000/svg">
<path d="M17.2774 13.4109C16.2239 13.4109 15.3699 12.5569 15.3699 11.5034C15.3699 10.4499 16.2239 9.59583 17.2774 9.59583C18.3309 9.59583 19.185 10.4499 19.185 11.5034C19.185 12.0093 18.984 12.4945 18.6263 12.8522C18.2685 13.2099 17.7833 13.4109 17.2774 13.4109ZM11.5548 13.4109C10.5013 13.4109 9.64729 12.5569 9.64729 11.5034C9.64729 10.4499 10.5013 9.59583 11.5548 9.59583C12.6083 9.59583 13.4624 10.4499 13.4624 11.5034C13.4624 12.0093 13.2614 12.4945 12.9037 12.8522C12.5459 13.2099 12.0607 13.4109 11.5548 13.4109ZM5.83222 13.4109C4.77872 13.4109 3.92468 12.5569 3.92468 11.5034C3.92468 10.4499 4.77872 9.59583 5.83222 9.59583C6.88572 9.59583 7.73975 10.4499 7.73975 11.5034C7.73975 12.0093 7.53878 12.4945 7.18105 12.8522C6.82332 13.2099 6.33813 13.4109 5.83222 13.4109Z" fill="#334054"/>
</svg>
