<svg width="17" height="23" viewBox="0 0 17 23" fill="none" xmlns="http://www.w3.org/2000/svg">
<g clip-path="url(#clip0_255_2879)">
<path d="M2.22486 22.2459H5.23883C6.3889 22.2459 6.99698 21.6379 6.99698 20.4746V2.47007C6.99698 1.26712 6.3889 0.711914 5.23883 0.711914H2.22486C1.07479 0.711914 0.466705 1.32 0.466705 2.47007V20.4746C0.466705 21.6379 1.07479 22.2459 2.22486 22.2459ZM11.8352 22.2459H14.836C15.9992 22.2459 16.5941 21.6379 16.5941 20.4746V2.47007C16.5941 1.26712 15.9992 0.711914 14.836 0.711914H11.8352C10.6719 0.711914 10.0638 1.32 10.0638 2.47007V20.4746C10.0638 21.6379 10.6719 22.2459 11.8352 22.2459Z" fill="white" fill-opacity="0.85"/>
</g>
<defs>
<clipPath id="clip0_255_2879">
<rect width="16.1274" height="21.534" fill="white" transform="translate(0.466705 0.711914)"/>
</clipPath>
</defs>
</svg>
