<svg width="25" height="18" viewBox="0 0 25 18" fill="none" xmlns="http://www.w3.org/2000/svg">
<g clip-path="url(#clip0_255_2914)">
<path d="M9.70286 16.5868C10.2912 16.5868 10.7102 16.1678 10.7102 15.5883V1.91339C10.7102 1.33395 10.2912 0.861472 9.68502 0.861472C9.26606 0.861472 8.9808 1.03977 8.53505 1.47658L4.72851 5.04239C4.67506 5.09589 4.59481 5.12263 4.50567 5.12263H1.9561C0.743719 5.12263 0.0929565 5.79121 0.0929565 7.0749V10.3912C0.0929565 11.6838 0.743719 12.3434 1.9561 12.3434H4.50567C4.59481 12.3434 4.67506 12.3702 4.72851 12.4237L8.53505 16.0251C8.9362 16.4174 9.28386 16.5868 9.70286 16.5868ZM13.8927 12.5128C14.1869 12.7178 14.6059 12.6554 14.8466 12.3078C15.533 11.4074 15.9431 10.0791 15.9431 8.71521C15.9431 7.35127 15.533 6.03193 14.8466 5.12263C14.6059 4.77498 14.1869 4.70364 13.8927 4.91761C13.5272 5.16723 13.4737 5.61293 13.7501 5.97843C14.2671 6.6916 14.5613 7.68113 14.5613 8.71521C14.5613 9.74928 14.2582 10.7299 13.7501 11.452C13.4826 11.8264 13.5272 12.2543 13.8927 12.5128ZM17.2 14.8395C17.5298 15.0624 17.9399 14.9822 18.1806 14.6434C19.3217 13.0744 19.9903 10.9171 19.9903 8.71521C19.9903 6.51332 19.3306 4.33815 18.1806 2.78702C17.9399 2.44827 17.5298 2.36804 17.2 2.5909C16.8702 2.81376 16.8167 3.23275 17.0752 3.59825C18.0469 4.9711 18.6085 6.81638 18.6085 8.71521C18.6085 10.614 18.0291 12.4415 17.0752 13.8321C16.8256 14.1977 16.8702 14.6167 17.2 14.8395ZM20.543 17.2018C20.8461 17.4247 21.2829 17.3356 21.5236 16.979C23.0836 14.7236 24.0197 11.862 24.0197 8.71521C24.0197 5.55943 23.0569 2.7157 21.5236 0.451404C21.2829 0.085907 20.8461 0.00567594 20.543 0.22854C20.2042 0.460319 20.1596 0.879304 20.4003 1.2448C21.7821 3.28623 22.6557 5.85365 22.6557 8.71521C22.6557 11.5679 21.7821 14.1531 20.4003 16.1856C20.1596 16.5511 20.2042 16.9701 20.543 17.2018Z" fill="white" fill-opacity="0.85"/>
</g>
<defs>
<clipPath id="clip0_255_2914">
<rect width="23.9267" height="17.2298" fill="white" transform="translate(0.0929565 0.104736)"/>
</clipPath>
</defs>
</svg>
