<svg width="29" height="17" viewBox="0 0 29 17" fill="none" xmlns="http://www.w3.org/2000/svg">
<path d="M15.9854 0.276567C15.172 0.276567 14.4836 0.902343 14.4836 2.06002L14.4836 14.8777C14.4836 16.0354 15.172 16.6611 15.9854 16.6611C16.4131 16.6611 16.7572 16.5256 17.1848 16.2752L27.8124 10.0176C28.5528 9.57958 28.8657 9.06856 28.8657 8.47407C28.8657 7.86918 28.5528 7.35815 27.8124 6.92013L17.1848 0.662477C16.7677 0.412146 16.4131 0.276567 15.9854 0.276567ZM1.65551 0.276567C0.841988 0.276567 0.153683 0.902343 0.153683 2.06002L0.153683 14.8777C0.153683 16.0354 0.841988 16.6611 1.65551 16.6611C2.08313 16.6611 2.42728 16.5256 2.85489 16.2752L13.4824 10.0176C14.2229 9.57958 14.5358 9.06856 14.5358 8.47407C14.5358 7.86918 14.2229 7.35815 13.4824 6.92013L2.85489 0.662477C2.43769 0.412146 2.08313 0.276567 1.65551 0.276567Z" fill="white" fill-opacity="0.85"/>
</svg>
