<svg width="24" height="24" viewBox="0 0 24 24" fill="none" xmlns="http://www.w3.org/2000/svg">
<path d="M3.47388 17.5637V11.8411C3.47388 9.56452 4.37825 7.38117 5.98805 5.77137C7.59784 4.16158 9.78119 3.2572 12.0578 3.2572C14.3344 3.2572 16.5177 4.16158 18.1275 5.77137C19.7373 7.38117 20.6417 9.56452 20.6417 11.8411V17.5637" stroke="#334054" stroke-width="1.90754" stroke-linecap="round" stroke-linejoin="round"/>
<path d="M20.6417 18.5175C20.6417 19.0234 20.4407 19.5086 20.083 19.8663C19.7253 20.2241 19.2401 20.425 18.7342 20.425H17.7804C17.2745 20.425 16.7893 20.2241 16.4316 19.8663C16.0738 19.5086 15.8729 19.0234 15.8729 18.5175V15.6562C15.8729 15.1503 16.0738 14.6651 16.4316 14.3074C16.7893 13.9496 17.2745 13.7487 17.7804 13.7487H20.6417V18.5175ZM3.47388 18.5175C3.47388 19.0234 3.67485 19.5086 4.03258 19.8663C4.39031 20.2241 4.8755 20.425 5.38141 20.425H6.33518C6.84109 20.425 7.32628 20.2241 7.68401 19.8663C8.04174 19.5086 8.24272 19.0234 8.24272 18.5175V15.6562C8.24272 15.1503 8.04174 14.6651 7.68401 14.3074C7.32628 13.9496 6.84109 13.7487 6.33518 13.7487H3.47388V18.5175Z" stroke="#334054" stroke-width="1.90754" stroke-linecap="round" stroke-linejoin="round"/>
</svg>
