<svg width="24" height="24" viewBox="0 0 24 24" fill="none" xmlns="http://www.w3.org/2000/svg">
<path d="M12.4042 20.1625C11.789 19.617 11.0937 19.0495 10.3583 18.4458H10.3488C7.75931 16.3284 4.82456 13.9325 3.52839 11.0617C3.10255 10.1477 2.87688 9.15332 2.86647 8.14507C2.86362 6.76162 3.41849 5.4354 4.40567 4.46617C5.39286 3.49693 6.72903 2.96649 8.1122 2.99472C9.23824 2.9965 10.34 3.32194 11.2863 3.93228C11.7022 4.20217 12.0784 4.52863 12.4042 4.90226C12.7318 4.53009 13.1081 4.20382 13.5229 3.93228C14.4688 3.32182 15.5703 2.99636 16.6961 2.99472C18.0793 2.96649 19.4154 3.49693 20.4026 4.46617C21.3898 5.4354 21.9447 6.76162 21.9418 8.14507C21.9321 9.15493 21.7064 10.151 21.2799 11.0665C19.9837 13.9373 17.05 16.3322 14.4605 18.4458L14.4509 18.4534C13.7146 19.0533 13.0203 19.6208 12.4051 20.1702L12.4042 20.1625ZM8.1122 4.90226C7.22377 4.89114 6.36687 5.23116 5.72778 5.8484C5.11201 6.45324 4.76786 7.28195 4.77393 8.14507C4.78481 8.87995 4.95125 9.60419 5.26234 10.2701C5.87419 11.5087 6.69977 12.6297 7.70113 13.5815C8.64631 14.5353 9.7336 15.4586 10.674 16.2349C10.9344 16.4495 11.1995 16.666 11.4647 16.8825L11.6316 17.0189C11.8863 17.2268 12.1495 17.4424 12.4042 17.6541L12.4166 17.6427L12.4223 17.6379H12.428L12.4366 17.6312H12.4414H12.4461L12.4633 17.6169L12.5024 17.5855L12.5091 17.5797L12.5196 17.5721H12.5253L12.5339 17.5645L13.1672 17.0447L13.3331 16.9083C13.6011 16.6899 13.8663 16.4734 14.1267 16.2588C15.0671 15.4824 16.1553 14.5601 17.1005 13.6016C18.102 12.6502 18.9276 11.5295 19.5393 10.291C19.856 9.6194 20.0248 8.88758 20.0343 8.14507C20.0383 7.28462 19.6943 6.45909 19.0805 5.85603C18.4427 5.236 17.5856 4.89318 16.6961 4.90226C15.6106 4.89304 14.573 5.34802 13.8443 6.15265L12.4042 7.81221L10.964 6.15265C10.2353 5.34802 9.19766 4.89304 8.1122 4.90226Z" fill="#334054"/>
</svg>
